<svg role="img" viewBox="0 0 24 24" xmlns="http://www.w3.org/2000/svg">
  <title>Bear</title>
  <rect width="24" height="24" rx="5" fill="#111827"/>
  <path fill="#fff" d="M7.5 7.4c0-1.5 1.1-2.7 2.5-2.7.8 0 1.5.4 2 .9.5-.6 1.2-.9 2-.9 1.4 0 2.5 1.2 2.5 2.7 1.3.8 2.2 2.3 2.2 4 0 3-2.5 5.5-6.7 5.5s-6.7-2.5-6.7-5.5c0-1.7.9-3.2 2.2-4Z"/>
  <path fill="#111827" d="M9 11.2c.6 0 1-.5 1-1s-.4-1-1-1-1 .5-1 1 .4 1 1 1Zm6 0c.6 0 1-.5 1-1s-.4-1-1-1-1 .5-1 1 .4 1 1 1Zm-3 3.3c1.3 0 2.3-.6 2.8-1.5H9.2c.5.9 1.5 1.5 2.8 1.5Z"/>
  <path fill="#fff" d="M8.7 18.4h6.6a1 1 0 0 1 0 2H8.7a1 1 0 0 1 0-2Z"/>
</svg>
